#!OML:ASF F:\VICON\USERDATA\INSTALL\rory3\rory3.ASF
:FULLY-SPECIFIED
:DEGREES
2085
root 0.0796148 18.4407 0.413309 -364.315 -30.2604 -356.443
lowerback 6.32978 3.34468 1.80955
upperback 1.06942 4.54154 -1.04103
thorax -2.2113 2.24737 -2.44461
lowerneck -13.5733 5.26356 -1.55975
upperneck 4.44491 6.51964 9.6411
head 3.14672 3.68457 3.61332
rclavicle -1.06822e-013 1.11319e-014
rhumerus -25.8974 8.39324 -90.7334
rradius 24.8712
rwrist 23.4596
rhand -39.5406 -2.90906
rfingers 7.12502
rthumb -12.5249 -32.5137
lclavicle -1.06822e-013 1.11319e-014
lhumerus -30.5343 -13.0161 82.0543
lradius 52.9379
lwrist 8.8609
lhand -21.8938 24.9598
lfingers 7.12502
lthumb 4.51127 54.8918
rfemur 1.6396 2.57728 19.2262
rtibia 31.9264
rfoot -41.3468 -41.1836
rtoes 4.56925
lfemur -12.2456 6.25809 -17.6838
ltibia 33.4163
lfoot -17.0271 21.4406
ltoes -3.87111
2086
root 0.119204 18.4387 0.470918 -364.273 -29.546 -356.595
lowerback 6.29736 3.36765 1.81589
upperback 1.01668 4.57238 -1.05839
thorax -2.24407 2.2619 -2.46822
lowerneck -13.5571 5.16964 -1.35877
upperneck 4.46464 6.37952 9.36481
head 3.17314 3.60576 3.48955
rclavicle -4.13037e-014 1.2921e-014
rhumerus -25.8941 8.40415 -90.8001
rradius 24.7707
rwrist 23.2176
rhand -39.4162 -3.21545
rfingers 7.12502
rthumb -12.4049 -32.8274
lclavicle -4.13037e-014 1.2921e-014
lhumerus -30.2754 -12.6274 82.2595
lradius 51.7423
lwrist 8.813
lhand -22.0822 25.0137
lfingers 7.12502
lthumb 4.32943 54.9494
rfemur 1.73915 2.3112 19.1793
rtibia 32.1691
rfoot -41.2895 -41.4162
rtoes 4.31774
lfemur -11.8953 5.56596 -17.7478
ltibia 32.7087
lfoot -17.3417 21.4179
ltoes -2.99018
2087
root 0.156882 18.4373 0.530794 -364.192 -28.844 -356.849
lowerback 6.21477 3.38845 1.86758
upperback 1.01671 4.60325 -1.0364
thorax -2.19412 2.27795 -2.47077
lowerneck -13.7377 5.08927 -1.27936
upperneck 4.58566 6.25632 9.25254
head 3.25158 3.54772 3.44545
rclavicle -3.7707e-014 3.37934e-015
rhumerus -25.8117 8.3561 -90.7742
rradius 24.5991
rwrist 22.7705
rhand -39.2483 -2.95306
rfingers 7.12502
rthumb -12.2431 -32.5747
lclavicle -3.7707e-014 3.37934e-015
lhumerus -29.8664 -12.1837 82.4618
lradius 50.3717
lwrist 8.81999
lhand -22.1346 24.9613
lfingers 7.12502
lthumb 4.2788 54.898
rfemur 1.82993 2.0365 19.2417
rtibia 32.476
rfoot -41.2574 -41.6314
rtoes 4.0115
lfemur -11.5362 5.2367 -17.6991
ltibia 32.1898
lfoot -17.4966 20.8597
ltoes -2.26578
2088
root 0.192905 18.4396 0.591462 -364.23 -28.0696 -356.872
lowerback 6.13736 3.39579 1.64179
upperback 1.01144 4.5973 -1.03818
thorax -2.17442 2.27686 -2.3418
lowerneck -13.8153 4.99799 -1.23924
upperneck 4.65999 6.13278 9.11285
head 3.2987 3.48408 3.39399
rclavicle -4.48384e-014 9.93923e-015
rhumerus -25.7355 8.52954 -90.7836
rradius 24.4066
rwrist 21.9451
rhand -38.7033 -3.1602
rfingers 7.12502
rthumb -11.7175 -32.8125
lclavicle -4.48384e-014 9.93923e-015
lhumerus -29.4204 -11.6124 82.6747
lradius 48.8692
lwrist 8.39114
lhand -22.0182 24.6848
lfingers 7.12502
lthumb 4.39121 54.6193
rfemur 1.88116 1.63654 19.0514
rtibia 32.9065
rfoot -41.5863 -41.5809
rtoes 4.0573
lfemur -11.1784 5.19583 -17.888
ltibia 31.8303
lfoot -17.2167 19.8535
ltoes -2.29772
2089
root 0.230162 18.4441 0.649555 -364.351 -27.2286 -356.699
lowerback 6.09193 3.40784 1.23675
upperback 0.953364 4.58636 -1.05574
thorax -2.23995 2.27292 -2.13393
lowerneck -13.7265 4.89728 -1.35544
upperneck 4.73909 6.02324 9.02996
head 3.31324 3.42408 3.37955
rclavicle -5.81135e-014 6.55989e-015
rhumerus -25.7909 8.55549 -90.6743
rradius 24.2342
rwrist 21.1563
rhand -37.9236 -3.96685
rfingers 7.12502
rthumb -10.9656 -33.6605
lclavicle -5.81135e-014 6.55989e-015
lhumerus -29.1554 -11.0524 83.0063
lradius 47.3335
lwrist 8.36526
lhand -22.693 23.4402
lfingers 7.12502
lthumb 3.73956 53.3871
rfemur 1.85362 1.25853 18.678
rtibia 33.4777
rfoot -42.0598 -41.4334
rtoes 4.22005
lfemur -10.8836 4.95702 -18.2654
ltibia 31.5329
lfoot -16.8837 18.9093
ltoes -2.5162
2090
root 0.268804 18.4449 0.705053 -364.456 -26.3369 -356.485
lowerback 6.03107 3.42888 0.844795
upperback 0.895358 4.5872 -1.11641
thorax -2.29159 2.27523 -1.97733
lowerneck -13.5699 4.77688 -1.52609
upperneck 4.72242 5.89788 9.02534
head 3.28511 3.35572 3.39226
rclavicle 9.31679e-014 -1.37161e-014
rhumerus -25.8829 8.40913 -90.5056
rradius 24.0926
rwrist 20.3514
rhand -37.1167 -4.7067
rfingers 7.12502
rthumb -10.1873 -34.44
lclavicle 9.31679e-014 -1.37161e-014
lhumerus -28.8866 -10.4248 83.2914
lradius 45.8381
lwrist 8.16544
lhand -23.4649 22.723
lfingers 7.12502
lthumb 2.99413 52.6817
rfemur 1.72882 0.845262 18.2574
rtibia 34.1829
rfoot -42.6718 -41.1447
rtoes 4.64838
lfemur -10.6519 4.48348 -18.6723
ltibia 31.1918
lfoot -16.6823 18.2773
ltoes -3.41297
2091
root 0.306197 18.4449 0.760224 -364.711 -25.4002 -356.179
lowerback 6.06595 3.44769 0.366641
upperback 0.898366 4.57832 -1.21165
thorax -2.33792 2.27369 -1.81179
lowerneck -13.4906 4.64125 -1.71038
upperneck 4.76542 5.74503 9.07223
head 3.28755 3.27895 3.42563
rclavicle -6.12412e-014 6.95746e-015
rhumerus -25.9301 8.51552 -90.3983
rradius 23.8688
rwrist 19.2206
rhand -36.4027 -4.52647
rfingers 7.12502
rthumb -9.49835 -34.2924
lclavicle -6.12412e-014 6.95746e-015
lhumerus -28.4812 -9.82804 83.5314
lradius 44.1618
lwrist 7.80573
lhand -24.046 22.5986
lfingers 7.12502
lthumb 2.4329 52.5644
rfemur 1.65314 0.357535 17.7386
rtibia 35.0147
rfoot -42.8609 -41.2027
rtoes 4.73214
lfemur -10.2811 4.0376 -19.1754
ltibia 30.757
lfoot -16.4703 17.7757
ltoes -4.26816
2092
root 0.344657 18.4507 0.814146 -365.038 -24.4516 -355.791
lowerback 6.21246 3.46201 -0.154467
upperback 0.862253 4.55783 -1.332
thorax -2.48828 2.26581 -1.65684
lowerneck -13.4287 4.50949 -1.93118
upperneck 4.94054 5.59376 9.13047
head 3.33164 3.20589 3.47219
rclavicle 4.85035e-014 -1.98785e-014
rhumerus -26.0718 8.33676 -90.2057
rradius 23.6163
rwrist 18.3118
rhand -35.7745 -3.83205
rfingers 7.12502
rthumb -8.89222 -33.6247
lclavicle 4.85035e-014 -1.98785e-014
lhumerus -28.1583 -9.22851 83.8217
lradius 42.298
lwrist 7.51032
lhand -24.3133 22.6171
lfingers 7.12502
lthumb 2.17475 52.5858
rfemur 1.53837 -0.208363 17.0986
rtibia 35.945
rfoot -42.6965 -41.452
rtoes 4.60589
lfemur -9.87039 3.68704 -19.7959
ltibia 30.2824
lfoot -16.0302 17.289
ltoes -5.54594
2093
root 0.384594 18.4587 0.866024 -365.287 -23.5489 -355.373
lowerback 6.28992 3.50644 -0.668087
upperback 0.817085 4.5761 -1.4747
thorax -2.60611 2.27804 -1.5278
lowerneck -13.4399 4.32953 -2.11138
upperneck 5.17851 5.37397 9.08789
head 3.41463 3.09708 3.48128
rclavicle -7.86706e-014 1.35174e-014
rhumerus -26.0834 8.00511 -89.929
rradius 23.2198
rwrist 17.5489
rhand -35.1094 -3.84623
rfingers 7.12502
rthumb -8.25035 -33.6651
lclavicle -7.86706e-014 1.35174e-014
lhumerus -27.748 -8.40766 84.0073
lradius 40.4158
lwrist 6.53063
lhand -23.8639 23.5437
lfingers 7.12502
lthumb 2.60884 53.5075
rfemur 1.27512 -0.689128 16.395
rtibia 36.9532
rfoot -42.4817 -41.6044
rtoes 4.78541
lfemur -9.5431 3.37445 -20.4727
ltibia 29.8524
lfoot -15.7475 16.7377
ltoes -6.64012
2094
root 0.423635 18.4686 0.915547 -365.267 -22.5945 -355.249
lowerback 6.20788 3.5369 -0.924607
upperback 0.773934 4.59736 -1.57278
thorax -2.61659 2.2907 -1.48439
lowerneck -13.535 4.11527 -2.24081
upperneck 5.42469 5.09982 9.03024
head 3.51903 2.96318 3.477
rclavicle 4.27783e-014 1.42131e-014
rhumerus -25.9956 8.14387 -89.7768
rradius 22.7611
rwrist 16.4193
rhand -35.0497 -3.62948
rfingers 7.12502
rthumb -8.19271 -33.4506
lclavicle 4.27783e-014 1.42131e-014
lhumerus -27.2232 -7.50421 84.0518
lradius 38.5985
lwrist 5.12019
lhand -23.1657 24.938
lfingers 7.12502
lthumb 3.28307 54.8925
rfemur 0.823781 -1.22737 15.9848
rtibia 38.0186
rfoot -41.9701 -41.812
rtoes 5.28832
lfemur -9.41848 2.91633 -20.8481
ltibia 29.5146
lfoot -15.698 16.2238
ltoes -6.80983
